<svg xmlns="http://www.w3.org/2000/svg" viewBox="0 0 64 64" fill="none">
  <!-- Background circle -->
  <circle cx="32" cy="32" r="30" fill="#f5f5f7"/>
  
  <!-- Apple shape -->
  <path d="M32 14C32 14 27 11 22 14C17 17 15 22 15 28C15 34 17 40 21 46C25 52 28 54 32 54C36 54 39 52 43 46C47 40 49 34 49 28C49 22 47 17 42 14C37 11 32 14 32 14Z" fill="#1d1d1f"/>
  
  <!-- Leaf -->
  <path d="M32 14C32 14 34 9 40 7" stroke="#1d1d1f" stroke-width="3" stroke-linecap="round"/>
  
  <!-- Highlight -->
  <ellipse cx="24" cy="28" rx="5" ry="7" fill="white" opacity="0.15"/>
</svg>
